<svg xmlns:xlink="http://www.w3.org/1999/xlink" xmlns="http://www.w3.org/2000/svg" width="1000.0" height="349.719234743">
  <desc>Created by CircuitLab https://www.circuitlab.com/</desc><g transform="matrix(1.22235376629,0,0,1.22235376629,-2659.26881713,-1426.97196456)">
    <path style="stroke-linecap: round; stroke-miterlimit: 6;" fill="none" stroke="#000000" d="M25,21.87499L25,0" stroke-width="2" stroke-linecap="round" stroke-miterlimit="6" transform="matrix(0,1,-1,0,2450,1250)"/>
    <path style="stroke-linecap: round; stroke-miterlimit: 6;" fill="none" stroke="#000000" d="M25,78.12502L25,100" stroke-width="2" stroke-linecap="round" stroke-miterlimit="6" transform="matrix(0,1,-1,0,2450,1250)"/>
    <path style="stroke-linecap: round; stroke-miterlimit: 6;" fill="none" stroke="#000000" d="M25,21.87499L14.062504,26.56249L35.937495,35.93748L14.062504,45.31248L35.937495,54.68752L14.062504,64.06252L35.937495,73.43752L25,78.12502" stroke-width="2" stroke-linecap="round" stroke-miterlimit="6" transform="matrix(0,1,-1,0,2450,1250)"/>
    <text style="font-family: Arial; font-size: 16px; font-weight: bold; text-anchor: middle;" x="0" y="0" text-anchor="middle" stroke="none" fill="#000000" transform="translate(2400,1303.35)">
      <tspan dy="7.2">R_infl</tspan>
    </text>
    <path style="stroke-linecap: round; stroke-miterlimit: 6;" fill="none" stroke="#000000" d="M25,21.87499L25,0" stroke-width="2" stroke-linecap="round" stroke-miterlimit="6" transform="matrix(0,1,-1,0,2450,1325)"/>
    <path style="stroke-linecap: round; stroke-miterlimit: 6;" fill="none" stroke="#000000" d="M25,78.12502L25,100" stroke-width="2" stroke-linecap="round" stroke-miterlimit="6" transform="matrix(0,1,-1,0,2450,1325)"/>
    <path style="stroke-linecap: round; stroke-miterlimit: 6;" fill="none" stroke="#000000" d="M25,21.87499L14.062504,26.56249L35.937495,35.93748L14.062504,45.31248L35.937495,54.68752L14.062504,64.06252L35.937495,73.43752L25,78.12502" stroke-width="2" stroke-linecap="round" stroke-miterlimit="6" transform="matrix(0,1,-1,0,2450,1325)"/>
    <text style="font-family: Arial; font-size: 16px; font-weight: bold; text-anchor: middle;" x="0" y="0" text-anchor="middle" stroke="none" fill="#000000" transform="translate(2400,1378.35)">
      <tspan dy="7.2">R_env</tspan>
    </text>
    <path style="stroke-linecap: round; stroke-miterlimit: 6;" fill="none" stroke="#000000" d="M25,21.87443L25,0" stroke-width="2" stroke-linecap="round" stroke-miterlimit="6" transform="matrix(0,1,-1,0,2450,1175)"/>
    <path style="stroke-linecap: round; stroke-miterlimit: 6;" fill="none" stroke="#000000" d="M25,78.12482L25,100" stroke-width="2" stroke-linecap="round" stroke-miterlimit="6" transform="matrix(0,1,-1,0,2450,1175)"/>
    <path style="stroke-linecap: round; stroke-miterlimit: 6;" fill="none" stroke="#000000" d="M25,21.87443L14.062,26.56193L35.93718,35.937L14.062,45.31208L35.93718,54.68722L14.062,64.06222L35.93718,73.43732L25,78.12482" stroke-width="2" stroke-linecap="round" stroke-miterlimit="6" transform="matrix(0,1,-1,0,2450,1175)"/>
    <path fill="#000000" stroke="none" d="M46.874768,43.74954C39.062204,47.65582,36.718435,47.65582,25,50C36.718435,52.34332,39.062204,52.34332,46.874768,56.24962C45.312255,51.56212,45.312255,48.43712,46.874768,43.74954" transform="matrix(0,1,-1,0,2450,1175)"/>
    <path style="stroke-linecap: round; stroke-miterlimit: 6;" fill="none" stroke="#000000" d="M75,50L37.5,50" stroke-width="2" stroke-linecap="round" stroke-miterlimit="6" transform="matrix(0,1,-1,0,2450,1175)"/>
    <text style="font-family: Arial; font-size: 16px; font-weight: bold; text-anchor: middle;" x="0" y="0" text-anchor="middle" stroke="none" fill="#000000" transform="translate(2400,1171.65)">
      <tspan dy="7.2">R_vent</tspan>
    </text>
    <path style="stroke-linecap: round;" fill="none" stroke="#000000" d="M 2325 1200 L 2325 1350" stroke-width="2" stroke-linecap="round" class="cl_wire"/>
    <path style="stroke-linecap: round;" fill="none" stroke="#000000" d="M 2475 1200 L 2475 1350" stroke-width="2" stroke-linecap="round" class="cl_wire"/>
    <path style="stroke-linecap: round;" fill="none" stroke="#000000" d="M 2325 1275 L 2350 1275" stroke-width="2" stroke-linecap="round" class="cl_wire"/>
    <path style="stroke-linecap: round;" fill="none" stroke="#000000" d="M 2325 1200 L 2350 1200" stroke-width="2" stroke-linecap="round" class="cl_wire"/>
    <path style="stroke-linecap: round;" fill="none" stroke="#000000" d="M 2450 1275 L 2475 1275" stroke-width="2" stroke-linecap="round" class="cl_wire"/>
    <path style="stroke-linecap: round;" fill="none" stroke="#000000" d="M 2450 1200 L 2475 1200" stroke-width="2" stroke-linecap="round" class="cl_wire"/>
    <path style="stroke-linecap: round;" fill="none" stroke="#000000" d="M 2250 1275 L 2325 1275" stroke-width="2" stroke-linecap="round" class="cl_wire"/>
    <path style="stroke-linecap: round;" fill="none" stroke="#000000" d="M 2325 1350 L 2350 1350" stroke-width="2" stroke-linecap="round" class="cl_wire"/>
    <path style="stroke-linecap: round;" fill="none" stroke="#000000" d="M 2450 1350 L 2475 1350" stroke-width="2" stroke-linecap="round" class="cl_wire"/>
    <path style="stroke-linecap: round;" fill="none" stroke="#000000" d="M 2250 1275 L 2250 1325" stroke-width="2" stroke-linecap="round" class="cl_wire"/>
    <path style="stroke-linecap: round; stroke-miterlimit: 6;" fill="#ffffff" stroke="#000000" d="M50,50C50,36.19374,38.806255,25,25,25C11.193755,25,0,36.19374,0,50C0,63.80632,11.193755,75,25,75C38.806255,75,50,63.80632,50,50" stroke-width="2" stroke-linecap="round" stroke-miterlimit="6" transform="matrix(-1,0,0,1,2275,1325)"/>
    <path style="stroke-linecap: round; stroke-miterlimit: 6;" fill="none" stroke="#000000" d="M25,0L25,25" stroke-width="2" stroke-linecap="round" stroke-miterlimit="6" transform="matrix(-1,0,0,1,2275,1325)"/>
    <path style="stroke-linecap: round; stroke-miterlimit: 6;" fill="none" stroke="#000000" d="M25,100.00002L25,75" stroke-width="2" stroke-linecap="round" stroke-miterlimit="6" transform="matrix(-1,0,0,1,2275,1325)"/>
    <path style="font-size: 15px; font-weight: normal;" fill="#000000" stroke="none" d="M25.84227,33.168L24.157737,33.168L24.157737,40.48806L16.898932,40.48806L16.898932,42.17259L24.157737,42.17259L24.157737,49.49262L25.84227,49.49262L25.84227,42.17259L33.101076,42.17259L33.101076,40.48806L25.84227,40.48806L25.84227,33.168" font-size="15px" font-weight="normal" transform="matrix(-1,0,0,1,2275,1325)"/>
    <path style="font-size: 15px; font-weight: normal;" fill="#000000" stroke="none" d="M17.006089,60.39372L17.006089,62.07822L33.055093,62.07822L33.055093,60.39372L17.006089,60.39372" font-size="15px" font-weight="normal" transform="matrix(-1,0,0,1,2275,1325)"/>
    <text style="font-family: Arial; font-size: 16px; font-weight: bold; text-anchor: end;" x="0" y="0" text-anchor="end" stroke="none" fill="#000000" transform="translate(2218.75,1375)">
      <tspan dy="7.2">T_out</tspan>
    </text>
    <path style="stroke-linecap: round; stroke-miterlimit: 6;" fill="none" stroke="#000000" d="M25,54.68752L25,100" stroke-width="2" stroke-linecap="round" stroke-miterlimit="6" transform="translate(2525,1300)"/>
    <path style="stroke-linecap: round; stroke-miterlimit: 6;" fill="none" stroke="#000000" d="M25,45.31249L25,0" stroke-width="2" stroke-linecap="round" stroke-miterlimit="6" transform="translate(2525,1300)"/>
    <path style="stroke-linecap: round; stroke-miterlimit: 6;" fill="none" stroke="#000000" d="M50,45.31249L0,45.31249" stroke-width="2" stroke-linecap="round" stroke-miterlimit="6" transform="translate(2525,1300)"/>
    <path style="stroke-linecap: round; stroke-miterlimit: 6;" fill="none" stroke="#000000" d="M50,54.68752L0,54.68752" stroke-width="2" stroke-linecap="round" stroke-miterlimit="6" transform="translate(2525,1300)"/>
    <text style="font-family: Arial; font-size: 16px; font-weight: bold; text-anchor: start;" x="0" y="0" text-anchor="start" stroke="none" fill="#000000" transform="translate(2581.25,1350)">
      <tspan dy="7.2">C_m</tspan>
    </text>
    <path style="stroke-linecap: round;" fill="none" stroke="#000000" d="M 2550 1275 L 2550 1300" stroke-width="2" stroke-linecap="round" class="cl_wire"/>
    <path style="stroke-linecap: round;" fill="none" stroke="#000000" d="M 2250 1450 L 2550 1450" stroke-width="2" stroke-linecap="round" class="cl_wire"/>
    <path style="stroke-linecap: round;" fill="none" stroke="#000000" d="M 2250 1425 L 2250 1450" stroke-width="2" stroke-linecap="round" class="cl_wire"/>
    <path style="stroke-linecap: round;" fill="none" stroke="#000000" d="M 2550 1400 L 2550 1450" stroke-width="2" stroke-linecap="round" class="cl_wire"/>
    <path style="stroke-linecap: round; stroke-miterlimit: 6;" fill="#ffffff" stroke="#000000" d="M50,50C50,36.19373,38.806233,25,25,25C11.193742,25,0,36.19373,0,50C0,63.80632,11.193742,75,25,75C38.806233,75,50,63.80632,50,50" stroke-width="2" stroke-linecap="round" stroke-miterlimit="6" transform="matrix(1,0,0,-1,2750,1400)"/>
    <path style="stroke-linecap: round; stroke-miterlimit: 6;" fill="none" stroke="#000000" d="M25,0.00002L25,25" stroke-width="2" stroke-linecap="round" stroke-miterlimit="6" transform="matrix(1,0,0,-1,2750,1400)"/>
    <path style="stroke-linecap: round; stroke-miterlimit: 6;" fill="none" stroke="#000000" d="M25,100L25,75" stroke-width="2" stroke-linecap="round" stroke-miterlimit="6" transform="matrix(1,0,0,-1,2750,1400)"/>
    <path style="stroke-linecap: round; stroke-miterlimit: 6;" fill="none" stroke="#000000" d="M25,56.49892L25,35.05936" stroke-width="1.49310875" stroke-linecap="round" stroke-miterlimit="6" transform="matrix(1,0,0,-1,2750,1400)"/>
    <path fill="#000000" stroke="none" d="M20.099545,48.53562C23.162335,54.66122,23.162335,56.49892,25,65.68722C26.837665,56.49892,26.837665,54.66122,29.900455,48.53562C26.225105,49.76072,23.774885,49.76072,20.099545,48.53562" transform="matrix(1,0,0,-1,2750,1400)"/>
    <text style="font-family: Arial; font-size: 16px; font-weight: bold; text-anchor: start;" x="0" y="0" text-anchor="start" stroke="none" fill="#000000" transform="translate(2806.25,1350)">
      <tspan dy="7.2">Q_Rad</tspan>
    </text>
    <path style="stroke-linecap: round;" fill="none" stroke="#000000" d="M 2775 1275 L 2775 1300" stroke-width="2" stroke-linecap="round" class="cl_wire"/>
    <path style="stroke-linecap: round;" fill="none" stroke="#000000" d="M 2775 1400 L 2775 1450" stroke-width="2" stroke-linecap="round" class="cl_wire"/>
    <path style="stroke-linecap: round; stroke-miterlimit: 6;" fill="#ffffff" stroke="#000000" d="M50,50C50,36.19373,38.806233,25,25,25C11.193742,25,0,36.19373,0,50C0,63.80632,11.193742,75,25,75C38.806233,75,50,63.80632,50,50" stroke-width="2" stroke-linecap="round" stroke-miterlimit="6" transform="matrix(1,0,0,-1,2875,1400)"/>
    <path style="stroke-linecap: round; stroke-miterlimit: 6;" fill="none" stroke="#000000" d="M25,0.00002L25,25" stroke-width="2" stroke-linecap="round" stroke-miterlimit="6" transform="matrix(1,0,0,-1,2875,1400)"/>
    <path style="stroke-linecap: round; stroke-miterlimit: 6;" fill="none" stroke="#000000" d="M25,100L25,75" stroke-width="2" stroke-linecap="round" stroke-miterlimit="6" transform="matrix(1,0,0,-1,2875,1400)"/>
    <path style="stroke-linecap: round; stroke-miterlimit: 6;" fill="none" stroke="#000000" d="M25,56.49892L25,35.05936" stroke-width="1.49310875" stroke-linecap="round" stroke-miterlimit="6" transform="matrix(1,0,0,-1,2875,1400)"/>
    <path fill="#000000" stroke="none" d="M20.099545,48.53562C23.162335,54.66122,23.162335,56.49892,25,65.68722C26.837665,56.49892,26.837665,54.66122,29.900455,48.53562C26.225105,49.76072,23.774885,49.76072,20.099545,48.53562" transform="matrix(1,0,0,-1,2875,1400)"/>
    <text style="font-family: Arial; font-size: 16px; font-weight: bold; text-anchor: start;" x="0" y="0" text-anchor="start" stroke="none" fill="#000000" transform="translate(2931.25,1350)">
      <tspan dy="7.2">Q_gains</tspan>
    </text>
    <path style="stroke-linecap: round;" fill="none" stroke="#000000" d="M 2900 1275 L 2900 1300" stroke-width="2" stroke-linecap="round" class="cl_wire"/>
    <path style="stroke-linecap: round;" fill="none" stroke="#000000" d="M 2900 1400 L 2900 1450" stroke-width="2" stroke-linecap="round" class="cl_wire"/>
    <text style="font-family: Arial; font-size: 16px; font-weight: bold; text-anchor: start; font-style: normal;" x="0" y="0" text-anchor="start" stroke="none" fill="#000000" font-style="normal" transform="translate(2550,1260.5)">
      <tspan dy="7.2">T_in</tspan>
    </text>
    <path style="stroke-linecap: round; stroke-miterlimit: 6;" fill="#ffffff" stroke="#000000" d="M50,50C50,36.19373,38.806233,25,25,25C11.193742,25,0,36.19373,0,50C0,63.80632,11.193742,75,25,75C38.806233,75,50,63.80632,50,50" stroke-width="2" stroke-linecap="round" stroke-miterlimit="6" transform="matrix(1,0,0,-1,2625,1400)"/>
    <path style="stroke-linecap: round; stroke-miterlimit: 6;" fill="none" stroke="#000000" d="M25,0.00002L25,25" stroke-width="2" stroke-linecap="round" stroke-miterlimit="6" transform="matrix(1,0,0,-1,2625,1400)"/>
    <path style="stroke-linecap: round; stroke-miterlimit: 6;" fill="none" stroke="#000000" d="M25,100L25,75" stroke-width="2" stroke-linecap="round" stroke-miterlimit="6" transform="matrix(1,0,0,-1,2625,1400)"/>
    <path style="stroke-linecap: round; stroke-miterlimit: 6;" fill="none" stroke="#000000" d="M25,56.49892L25,35.05936" stroke-width="1.49310875" stroke-linecap="round" stroke-miterlimit="6" transform="matrix(1,0,0,-1,2625,1400)"/>
    <path fill="#000000" stroke="none" d="M20.099545,48.53562C23.162335,54.66122,23.162335,56.49892,25,65.68722C26.837665,56.49892,26.837665,54.66122,29.900455,48.53562C26.225105,49.76072,23.774885,49.76072,20.099545,48.53562" transform="matrix(1,0,0,-1,2625,1400)"/>
    <text style="font-family: Arial; font-size: 16px; font-weight: bold; text-anchor: start;" x="0" y="0" text-anchor="start" stroke="none" fill="#000000" transform="translate(2681.25,1350)">
      <tspan dy="7.2">Q_Heat</tspan>
    </text>
    <path style="stroke-linecap: round;" fill="none" stroke="#000000" d="M 2650 1275 L 2650 1300" stroke-width="2" stroke-linecap="round" class="cl_wire"/>
    <path style="stroke-linecap: round;" fill="none" stroke="#000000" d="M 2650 1400 L 2650 1450" stroke-width="2" stroke-linecap="round" class="cl_wire"/>
    <path style="stroke-linecap: round;" fill="none" stroke="#000000" d="M 2550 1450 L 2900 1450" stroke-width="2" stroke-linecap="round" class="cl_wire"/>
    <path style="stroke-linecap: round;" fill="none" stroke="#000000" d="M 2475 1275 L 2900 1275" stroke-width="2" stroke-linecap="round" class="cl_wire"/>
    <circle cx="2325" cy="1275" r="3" fill="#000000" stroke="#000000"/>
    <circle cx="2475" cy="1275" r="3" fill="#000000" stroke="#000000"/>
    <circle cx="2550" cy="1275" r="3" fill="#000000" stroke="#000000"/>
    <circle cx="2550" cy="1450" r="3" fill="#000000" stroke="#000000"/>
    <circle cx="2775" cy="1275" r="3" fill="#000000" stroke="#000000"/>
    <circle cx="2775" cy="1450" r="3" fill="#000000" stroke="#000000"/>
    <circle cx="2650" cy="1275" r="3" fill="#000000" stroke="#000000"/>
    <circle cx="2650" cy="1450" r="3" fill="#000000" stroke="#000000"/>
  </g>
</svg>
